<?xml version="1.0" encoding="UTF-8"?>
<svg xmlns="http://www.w3.org/2000/svg" xmlns:xlink="http://www.w3.org/1999/xlink" width="512px" height="512px" viewBox="0 0 512 512" version="1.1">
<g id="surface1">
<path style=" stroke:none;fill-rule:nonzero;fill:rgb(0%,0%,0%);fill-opacity:1;" d="M 255.949219 19.199219 C 197.265625 19.199219 154.214844 36.863281 122.980469 64.878906 C 171.242188 133.089844 236.695312 172.300781 294.921875 183.03125 C 327.5 189.03125 357.65625 186.109375 381.363281 175.015625 C 404.714844 164.089844 422.0625 145.566406 430.644531 118.152344 C 425.195312 107.390625 418.886719 97.238281 411.648438 87.863281 C 379.652344 46.421875 330.21875 19.199219 255.949219 19.199219 Z M 109.585938 78.296875 C 106.167969 82.117188 102.910156 86.082031 99.824219 90.171875 C 69.078125 130.925781 55.164062 185.007812 54.191406 238.109375 C 112.914062 264.53125 145.011719 300.757812 156 339.527344 C 186.308594 359.496094 225.621094 368.925781 264.21875 367.503906 C 298.023438 366.253906 331.058594 356.6875 356.90625 339.578125 C 367.113281 301.328125 399.246094 266.300781 457.71875 238.386719 C 457.175781 204.710938 451.847656 171.75 441.011719 142.105469 C 430.328125 163.089844 413.996094 179.0625 394.164062 189.503906 C 399.664062 207.023438 396.203125 225.261719 388.113281 240.351562 C 379.335938 256.730469 365.210938 270.019531 348.96875 276.523438 C 332.730469 283.03125 313.199219 281.867188 298.859375 268.304688 C 284.9375 255.132812 276.34375 232.347656 274.601562 197.59375 C 216.566406 182.234375 155.742188 142.378906 109.589844 78.296875 Z M 151.503906 176.101562 C 157.214844 197.066406 183.214844 212.988281 214.574219 212.988281 C 221.546875 212.988281 227.921875 212.058594 234.210938 210.609375 C 234.246094 211.207031 234.210938 211.792969 234.210938 212.394531 C 234.210938 236.890625 210.554688 257.015625 181.253906 257.015625 C 151.953125 257.015625 128.292969 236.890625 128.292969 212.394531 C 128.292969 197.085938 137.382812 184.078125 151.503906 176.105469 Z M 259.925781 250.207031 C 274.523438 279.300781 283.734375 308.394531 291.390625 337.488281 C 270.414062 329.964844 249.4375 330.851562 228.457031 337.488281 C 234.121094 308.394531 245.539062 279.300781 259.925781 250.207031 Z M 353.339844 363.460938 C 343.464844 368.710938 332.980469 373.046875 322.09375 376.480469 L 322.09375 420.949219 C 335.191406 416.324219 347.460938 410.265625 358.394531 402.828125 C 354.652344 389.785156 352.835938 376.605469 353.339844 363.464844 Z M 160.179688 363.6875 C 161.089844 377.273438 159.671875 390.808594 156.332031 403.996094 C 167.074219 411.03125 178.9375 416.738281 191.488281 421.121094 L 191.488281 376.621094 C 180.628906 373.222656 170.121094 368.917969 160.179688 363.683594 Z M 303.40625 381.394531 C 291.226562 384.011719 278.714844 385.589844 266.136719 386.117188 L 266.136719 431.664062 C 278.796875 431.078125 291.332031 429.328125 303.40625 426.445312 Z M 364.851562 421 C 336.078125 439.386719 300.730469 449.101562 264.910156 450.425781 C 224.75 451.90625 183.753906 442.835938 150.382812 422.363281 C 145.503906 434.726562 139.023438 446.632812 131.308594 457.808594 C 153.582031 479.277344 202.023438 493.300781 252.617188 493.851562 C 303.5 494.402344 355.921875 481.765625 385.335938 457.835938 C 377.097656 445.863281 370.15625 433.53125 364.851562 421 Z M 364.851562 421 "/>
</g>
</svg>
